<svg width="11" height="19" viewBox="0 0 11 19" fill="none" xmlns="http://www.w3.org/2000/svg">
<path fill-rule="evenodd" clip-rule="evenodd" d="M6.975 8.5C6.993 7.375 6.304 7 5.475 7C4.647 7 3.994 7.375 3.976 8.5C3.958 9.625 4.647 10 5.476 10C6.304 10 6.957 9.625 6.975 8.5ZM7.002 13C8.105 13 9.245 13.858 9.552 14.931L10 18H8L7.629 15.48C7.568 15.268 7.214 15 7.002 15H3.998C3.785 15 3.432 15.268 3.371 15.48L3 18H1L1.448 14.931C1.753 13.865 2.887 13 3.998 13H7.002ZM5.476 5C7.409 5 8.996 5.875 8.976 8.5C8.955 11.125 7.409 12 5.476 12C3.543 12 1.956 11.125 1.976 8.5C1.997 5.875 3.543 5 5.476 5Z" fill="#43A4F1"/>
</svg>
