<?xml version="1.0" encoding="UTF-8"?>
<svg width="16px" height="16px" viewBox="0 0 16 16" version="1.1" xmlns="http://www.w3.org/2000/svg" xmlns:xlink="http://www.w3.org/1999/xlink">
    <title>Icons/30px/Info</title>
    <g id="Desktop-Template" stroke="none" stroke-width="1" fill="none" fill-rule="evenodd">
        <g id="Bootstrap-Extra-large:-Desktops-—-12-Columns" transform="translate(-755.000000, -1464.000000)">
            <g id="Room-and-Rates-Section" transform="translate(0.000000, 1161.000000)">
                <g id="Reserve" transform="translate(739.000000, 193.000000)">
                    <g id="Components/Alerts/Error_small" transform="translate(8.000000, 102.000000)">
                        <g id="Icons/30px/Info" transform="translate(8.000000, 8.000000)">
                            <path d="M14,8 C14,4.6862915 11.3137085,2 8,2 C4.6862915,2 2,4.6862915 2,8 C2,11.3137085 4.6862915,14 8,14 C11.3137085,14 14,11.3137085 14,8 Z M0.666666667,8 C0.666666667,3.94991183 3.94991183,0.666666667 8,0.666666667 C12.0500882,0.666666667 15.3333333,3.94991183 15.3333333,8 C15.3333333,12.0500882 12.0500882,15.3333333 8,15.3333333 C3.94991183,15.3333333 0.666666667,12.0500882 0.666666667,8 Z M7.33333336,8.00000001 L7.33333335,11.3333333 L8.66666661,11.3333333 L8.66666661,6.66666668 L5.99999995,6.66666668 L5.99999995,8.00000001 L7.33333336,8.00000001 Z M8.66666661,6.00000001 L8.66666661,4.66666667 L7.33333333,4.66666667 L7.33333333,6.00000001 L8.66666661,6.00000001 Z" id="Oval" fill="#5577FC"></path>
                            <path d="M0,0 L16,0 L16,16 L0,16 L0,0 Z" id="Path" stroke-opacity="0.01" stroke="#000000" stroke-width="0.01"></path>
                        </g>
                    </g>
                </g>
            </g>
        </g>
    </g>
</svg>