<svg xmlns="http://www.w3.org/2000/svg" width="24" height="24" viewBox="0 0 24 24">
    <g fill="none" fill-rule="evenodd">
        <g>
            <g>
                <g>
                    <g>
                        <path stroke="#FFF" stroke-opacity=".01" stroke-width=".01" d="M0 0h24v24H0V0z" transform="translate(-351 -1685) translate(0 1161) translate(341 512) translate(10 12)"/>
                        <path fill="#43A4F1" d="M8.976 9c.024-1.5-.895-2-2-2-1.104 0-1.976.5-2 2-.024 1.5.896 2 2 2 1.105 0 1.976-.5 2-2zm-6 0c.024-3 1.791-4 4-4 2.21 0 4.024 1 4 4-.024 3-1.79 4-4 4-2.209 0-4.024-1-4-4zm15-2c.024-1.5-.895-2-2-2-1.104 0-1.976.5-2 2-.024 1.5.896 2 2 2 1.105 0 1.976-.5 2-2zm-6 0c.024-3 1.791-4 4-4 2.21 0 4.024 1 4 4-.024 3-1.79 4-4 4-2.209 0-4.024-1-4-4zm-7.533 9.52c.057-.202.416-.473.627-.473h3.86c.217 0 .568.266.627.473l1.273 4.527h2.078l-1.426-5.068c-.302-1.073-1.443-1.932-2.552-1.932H5.07c-1.105 0-2.252.865-2.552 1.932l-1.426 5.068H3.17l1.273-4.527zM20 18.892h2l-1.45-5C20.245 12.85 19.104 12 18.001 12h-4.004C12.894 12 12 12.882 12 13.97h6.002c.21 0 .566.264.624.463L20 18.893z" transform="translate(-351 -1685) translate(0 1161) translate(341 512) translate(10 12)"/>
                    </g>
                </g>
            </g>
        </g>
    </g>
</svg>
