<svg width="14" height="19" viewBox="0 0 14 19" fill="none" xmlns="http://www.w3.org/2000/svg">
<path fill-rule="evenodd" clip-rule="evenodd" d="M8.976 5C9 3.5 8.081 3 6.976 3C5.872 3 5 3.5 4.976 5C4.952 6.5 5.872 7 6.976 7C8.081 7 8.952 6.5 8.976 5ZM2.976 5C3 2 4.767 1 6.976 1C9.186 1 11 2 10.976 5C10.952 8 9.186 9 6.976 9C4.767 9 2.952 8 2.976 5ZM3 18L4.177 13.153C4.493 11.993 4.793 12 5.997 12H8.003C9.203 12 9.509 12 9.823 13.153L11 18H13L11.753 12.627C11.201 10.603 10.105 10 8.003 10H5.997C3.891 10 2.801 10.596 2.247 12.627L1 18H3Z" fill="#43A4F1"/>
</svg>
