<?xml version="1.0" encoding="UTF-8"?>
<svg width="16px" height="16px" viewBox="0 0 16 16" version="1.1" xmlns="http://www.w3.org/2000/svg" xmlns:xlink="http://www.w3.org/1999/xlink">
    <title>Icons/30px/Error</title>
    <g id="Desktop-Template" stroke="none" stroke-width="1" fill="none" fill-rule="evenodd">
        <g id="Bootstrap-Extra-large:-Desktops-—-12-Columns" transform="translate(-180.000000, -1665.000000)">
            <g id="Room-and-Rates-Section" transform="translate(0.000000, 1161.000000)">
                <g id="Components/Alerts/Error_small" transform="translate(172.000000, 496.000000)">
                    <g id="Icons/30px/Error" transform="translate(8.000000, 8.000000)">
                        <path d="M9.70656367,2.84740581 L14.6624879,10.9571 C14.8543864,11.2711158 14.9559242,11.6319905 14.9559242,12 C14.9559242,13.1045695 14.0604937,14 12.9559242,14 L3.04407579,14 C2.67606628,14 2.3151916,13.8984622 2.00117577,13.7065637 C1.05866668,13.1305859 0.761534343,11.8996091 1.33751212,10.9571 L6.29343633,2.84740581 C6.45888354,2.57667402 6.68636819,2.34918937 6.95709998,2.18374216 C7.89960907,1.60776439 9.13058589,1.90489672 9.70656367,2.84740581 Z M7.65236666,3.32145128 C7.56212273,3.37660034 7.48629451,3.45242856 7.43114544,3.54267249 L2.47522123,11.6523667 C2.28322864,11.9665364 2.38227275,12.376862 2.69644245,12.5688546 C2.80111439,12.6328207 2.92140595,12.6666667 3.04407579,12.6666667 L12.9559242,12.6666667 C13.324114,12.6666667 13.6225909,12.3681898 13.6225909,12 C13.6225909,11.8773302 13.588745,11.7570386 13.5247788,11.6523667 L8.56885456,3.54267249 C8.37686196,3.2285028 7.96653636,3.12945868 7.65236666,3.32145128 Z M8.66666667,10.6666667 L8.66666667,12 L7.33333333,12 L7.33333333,10.6666667 L8.66666667,10.6666667 Z M8.66666667,6 L8.66666667,10 L7.33333333,10 L7.33333333,6 L8.66666667,6 Z" id="Combined-Shape" fill="#F46C60"></path>
                        <path d="M0,0 L16,0 L16,16 L0,16 L0,0 Z" id="Path" stroke-opacity="0.01" stroke="#000000" stroke-width="0.01"></path>
                    </g>
                </g>
            </g>
        </g>
    </g>
</svg>